<svg width="57" height="74" viewBox="0 0 57 74" fill="none" xmlns="http://www.w3.org/2000/svg">
<path d="M26.699 18.6852C22.9055 18.6852 19.1119 18.6852 15.3184 18.6852C14.3234 18.6852 14.0124 18.9335 14.0124 19.9267C14.0124 25.4516 14.0124 31.0385 14.0124 36.5633C14.0124 37.122 14.199 37.5566 14.5721 37.9911C17.3085 40.6604 20.0448 43.3297 22.7811 45.999C22.9677 46.1853 23.403 46.3715 23.5896 46.3094C23.7761 46.1853 23.9627 45.8128 23.9627 45.5024C23.9627 40.35 23.9627 35.1976 23.9627 30.0453C23.9627 28.8037 24.1493 28.6175 25.393 28.6175C27.8806 28.6175 30.306 28.6175 32.7935 28.6175C33.7264 28.6175 33.9751 28.8658 33.9751 29.7969C33.9751 34.8252 33.9751 39.9155 33.9751 44.9437C33.9751 45.13 33.9129 45.3783 33.9751 45.5645C34.0373 45.8128 34.1617 46.1853 34.3483 46.2473C34.5348 46.3094 34.908 46.1853 35.0945 45.999C36.1517 45.0058 37.209 43.9505 38.2662 42.9573C39.9453 41.3433 41.6244 39.6672 43.3035 38.0532C43.7388 37.6186 43.9254 37.122 43.9254 36.5013C43.9254 34.1423 43.9254 31.8455 43.9254 29.4866C43.9254 28.8658 44.1119 28.3692 44.5473 27.9346C47.2214 25.3274 49.8955 22.7202 52.6318 20.1129C52.7562 19.9888 52.8184 19.8646 53.005 19.8026C53.4403 19.5542 53.8756 19.7405 53.9378 20.2371C53.9378 20.4233 53.9378 20.6096 53.9378 20.7958C53.9378 27.3759 53.9378 34.0182 53.9378 40.5983C53.9378 41.3433 53.6891 41.8399 53.1915 42.3986C50.0821 45.4403 46.9726 48.4821 43.8632 51.5239C40.8159 54.5036 37.7687 57.4833 34.7214 60.463C34.2239 60.9596 33.9751 61.5183 33.9751 62.2632C33.9751 64.3117 33.9751 66.3603 33.9751 68.4088C33.9751 69.0296 33.7886 69.5262 33.3532 69.9607C32.0473 71.2023 30.8035 72.3818 29.5597 73.6233C29.1244 73.9958 28.8134 73.9958 28.3781 73.6233C27.01 72.3197 25.704 71.0161 24.398 69.6504C24.0871 69.34 23.9627 68.7813 23.9627 68.3467C23.9005 66.2361 23.9005 64.1876 23.9627 62.077C23.9627 61.4562 23.7761 60.9596 23.2786 60.463C17.1841 54.5657 11.0896 48.6063 4.99502 42.709C4.31095 41.964 4 41.2812 4 40.288C4.06219 30.2315 4 20.2371 4 10.1806C4 8.87701 4.18657 8.69078 5.49254 8.69078C11.2761 8.69078 17.1219 8.69078 22.9055 8.69078C23.8383 8.69078 23.9627 8.56662 23.9627 7.63547C23.9627 5.52485 23.9627 3.35216 23.9627 1.24154C23.9627 0.248308 24.2114 0 25.2687 0C27.8184 0 30.306 0 32.8557 0C33.7886 0 34.0373 0.248308 34.0373 1.11739C34.0373 3.228 34.0373 5.27654 34.0373 7.38716C34.0373 8.56662 34.0995 8.6287 35.2811 8.6287C39.3234 8.6287 43.4279 8.6287 47.4701 8.6287C47.7811 8.6287 48.2786 8.75285 48.4652 9.00116C48.7761 9.4357 48.3408 9.74609 48.0299 9.99439C45.2935 12.6637 42.495 15.3951 39.6965 18.0644C39.3234 18.3748 38.7637 18.6231 38.2662 18.6231C34.4104 18.7472 30.5547 18.6852 26.699 18.6852Z" fill="white"/>
</svg>
