<svg width="18" height="18" viewBox="0 0 18 18" fill="none" xmlns="http://www.w3.org/2000/svg">
<circle cx="9" cy="9" r="9" fill="#FFAE11"/>
<circle cx="8.9995" cy="8.99999" r="6.86364" stroke="white" stroke-opacity="0.2"/>
<path d="M9.87015 13.5687C8.93633 13.5687 8.08978 13.368 7.33051 12.9665C6.57996 12.5563 5.98651 11.9934 5.55015 11.2778C5.12251 10.5534 4.90869 9.73743 4.90869 8.82979C4.90869 7.92215 5.12251 7.11052 5.55015 6.39488C5.98651 5.67052 6.57996 5.10761 7.33051 4.70615C8.08978 4.29597 8.94069 4.09088 9.88324 4.09088C10.6774 4.09088 11.3931 4.23052 12.0301 4.50979C12.676 4.78906 13.2171 5.19052 13.6534 5.71415L12.292 6.97088C11.6723 6.25525 10.9043 5.89743 9.98796 5.89743C9.42069 5.89743 8.91451 6.02397 8.46942 6.27706C8.02433 6.52143 7.67524 6.86615 7.42215 7.31125C7.17778 7.75634 7.0556 8.26252 7.0556 8.82979C7.0556 9.39706 7.17778 9.90324 7.42215 10.3483C7.67524 10.7934 8.02433 11.1425 8.46942 11.3956C8.91451 11.64 9.42069 11.7622 9.98796 11.7622C10.9043 11.7622 11.6723 11.4 12.292 10.6756L13.6534 11.9323C13.2171 12.4647 12.676 12.8705 12.0301 13.1498C11.3843 13.4291 10.6643 13.5687 9.87015 13.5687Z" fill="white"/>
</svg>
