<svg width="86" height="87" viewBox="0 0 86 87" fill="none" xmlns="http://www.w3.org/2000/svg">
<g filter="url(#filter0_i_3_778)">
<rect y="0.952148" width="86" height="86" rx="24" fill="#ED4799"/>
</g>
<path fill-rule="evenodd" clip-rule="evenodd" d="M33.1283 24.0613C29.9948 24.5597 27.8284 26.6124 26.1601 30.6636C25.7024 31.775 25.1404 33.3934 24.91 34.2629C24.7242 34.9643 24.7088 35.1489 24.7096 36.6625C24.7104 38.1937 24.7319 38.4415 25.0359 40.4084C25.2149 41.5667 25.3654 42.7545 25.3703 43.0479C25.3771 43.456 25.1572 44.6231 24.4334 48.0201C23.9133 50.4615 23.4877 52.5132 23.4878 52.5792C23.4879 52.8081 26.2058 54.3758 27.9018 55.1254C28.5913 55.4301 30.3763 56.1116 30.4058 56.0814C30.418 56.0689 30.1518 55.5919 29.8142 55.0213C29.4762 54.4502 29.2271 53.947 29.2598 53.9016C29.2926 53.8563 29.5365 53.5432 29.802 53.2057C30.0674 52.8682 30.2846 52.5752 30.2846 52.5545C30.2846 52.5338 30.0925 52.5777 29.8577 52.6521C29.5399 52.7528 29.3852 52.856 29.2522 53.056C28.8408 53.6751 28.1695 53.8634 27.5893 53.5224C27.2516 53.324 26.9252 52.7818 26.9252 52.4196C26.9252 52.1326 27.236 51.5395 27.4827 51.3557C27.7827 51.1321 28.3483 51.0873 28.7176 51.2577C29.0145 51.3948 29.032 51.3933 29.7697 51.1684C30.2669 51.017 30.5077 50.9067 30.4835 50.8415C30.4634 50.7874 30.2479 50.4725 30.0047 50.1417C29.6435 49.6502 29.5234 49.5401 29.3492 49.5401C29.1008 49.5401 28.6851 49.2713 28.4668 48.9693C28.0615 48.409 28.3077 47.497 28.9565 47.1554C29.3427 46.952 29.8492 46.9597 30.1683 47.1738C30.3158 47.2728 30.421 47.2614 31.0523 47.0788C31.4465 46.9648 31.769 46.8469 31.769 46.8169C31.769 46.7869 31.5573 46.4875 31.2986 46.1516C30.9183 45.6578 30.7874 45.5408 30.615 45.5405C30.1778 45.54 29.7342 45.1263 29.5798 44.5753C29.3367 43.7072 30.2777 42.805 31.1479 43.072C31.6954 43.2399 32.1378 43.9487 32.0333 44.4904C32 44.663 32.1077 44.8525 32.6305 45.5409C32.9813 46.0028 33.2762 46.3892 33.2858 46.3996C33.2954 46.4099 33.7578 46.2889 34.3134 46.1305C35.5311 45.7835 35.4765 45.8464 36.0465 44.1288C36.4802 42.8215 37.0299 41.4324 37.6464 40.0858L38.0383 39.2299L37.84 38.886C37.1616 37.71 35.9771 36.9781 34.7614 36.9838C34.4721 36.9852 33.6064 37.1513 33.2924 37.2657C33.2065 37.2969 33.403 37.1398 33.7292 36.9163C34.8551 36.1451 35.3213 35.3879 35.3138 34.3429C35.3081 33.5491 35.0469 32.8306 34.4454 31.9535C34.3649 31.836 34.627 31.985 35.1319 32.3434C37.3171 33.8949 39.212 35.0598 40.8769 35.8751C41.6751 36.266 41.9002 36.3426 42.2516 36.3426H42.6719L42.8153 35.7725C43.0014 35.033 43.5362 33.9483 44.0119 33.3459C44.821 32.3211 46.1765 31.422 47.394 31.1026C47.6733 31.0293 47.913 30.958 47.9268 30.9442C47.9689 30.9019 47.6238 30.2503 47.2911 29.7438C46.7949 28.9885 45.5826 27.8128 44.6333 27.1665C42.7986 25.9173 40.2419 24.8808 37.5893 24.3107C35.8562 23.9383 34.4103 23.8574 33.1283 24.0613ZM48.2924 32.2635C46.5588 32.5304 45.0137 33.7015 44.3411 35.258C44.1309 35.7444 43.8005 37.082 43.799 37.4526C43.7971 37.9211 43.7412 37.9511 43.2133 37.7677C40.8561 36.9487 38.5416 39.8789 36.8525 45.8208L36.6024 46.7006L34.7281 49.0602C33.6972 50.358 32.3801 52.0198 31.801 52.7531L30.7482 54.0865L31.2584 54.9316C33.5882 58.7904 36.6447 61.9227 40.462 64.3631L41.3036 64.9011L44.8264 61.9691C46.7639 60.3564 48.5046 58.948 48.6946 58.8393C48.8847 58.7306 49.9265 58.3433 51.01 57.9788C53.3276 57.1991 53.9814 56.9406 54.9458 56.4227C55.9572 55.8796 56.6968 55.2821 57.7618 54.1473C60.3258 51.4152 61.4973 49.5694 62.0565 47.3805C62.28 46.5053 62.3301 45.1154 62.1674 44.3011C61.647 41.6967 60.0106 39.1682 56.9733 36.2753C53.8332 33.2843 50.7914 31.8787 48.2924 32.2635ZM31.6997 48.386C31.2105 48.5341 30.793 48.673 30.7719 48.6946C30.7508 48.7161 31.0083 49.1119 31.3441 49.5741C31.8262 50.2377 31.9767 50.3958 32.0592 50.3256C32.2115 50.1962 33.2533 48.8483 33.2533 48.7806C33.2533 48.6679 32.7697 48.1005 32.6804 48.1085C32.6303 48.113 32.189 48.2379 31.6997 48.386ZM41.6124 48.9097C42.1965 49.2458 42.4159 50.0797 42.0722 50.6569L41.9074 50.9338L42.0885 51.9625C42.2129 52.6697 42.3073 53.0109 42.3904 53.0539C42.4568 53.0883 42.9268 53.1989 43.4347 53.2995L44.3583 53.4824L44.6563 53.3109C45.6054 52.7648 46.7039 53.59 46.5011 54.6968C46.4329 55.0688 46.0226 55.4979 45.6156 55.6227C45.1574 55.7633 44.7124 55.62 44.3292 55.2087C44.0674 54.9276 43.9662 54.8808 43.3331 54.7479C42.7907 54.634 42.6283 54.6231 42.6283 54.7007C42.6283 54.7561 42.6829 55.0957 42.7495 55.4554C42.8604 56.0542 42.8994 56.1377 43.2113 56.4441C43.7512 56.9745 43.79 57.6839 43.3078 58.2073C42.7786 58.7817 42.0488 58.7891 41.4983 58.2255C41.1861 57.9059 41.114 57.8733 40.4408 57.7471C40.0434 57.6728 39.6988 57.6318 39.675 57.6562C39.6512 57.6806 39.6908 58.0423 39.763 58.4599C39.8857 59.1685 39.9147 59.2379 40.1974 59.4994C41.0648 60.3017 40.5449 61.6966 39.3782 61.6975C38.9073 61.6979 38.5394 61.4815 38.3015 61.0644C38.0858 60.6864 38.1001 60.0814 38.3325 59.7597L38.5076 59.5172L38.3219 58.4283L38.1362 57.3395L37.0938 57.1485L36.0514 56.9576L35.7434 57.1348C34.8765 57.6336 33.8783 57.0578 33.8783 56.0589C33.8783 55.5229 34.1045 55.1629 34.5989 54.9117C35.1273 54.6432 35.5219 54.7226 35.9786 55.1892C36.3029 55.5208 36.3596 55.546 37.0574 55.6677C37.4624 55.7384 37.8083 55.7813 37.8262 55.763C37.844 55.7448 37.8024 55.3941 37.7338 54.9838C37.6156 54.2766 37.5917 54.2205 37.2741 53.9085C36.4237 53.0729 36.9604 51.6997 38.1376 51.6997C38.495 51.6997 38.806 51.8656 39.0862 52.2057C39.2823 52.4437 39.3882 52.491 39.9991 52.6129C40.3793 52.6887 40.7094 52.7311 40.7329 52.7071C40.7563 52.6831 40.7147 52.3505 40.6405 51.9679C40.5166 51.329 40.4779 51.2447 40.1658 50.934C39.94 50.7094 39.8081 50.4991 39.7731 50.3079C39.5701 49.2003 40.6676 48.366 41.6124 48.9097ZM39.1693 54.9969C39.2718 55.5784 39.3628 56.0616 39.3715 56.0706C39.4259 56.1263 41.3897 56.4338 41.4297 56.3928C41.4708 56.3508 41.2175 54.8326 41.0995 54.4134C41.0737 54.3218 40.8111 54.2402 40.1342 54.1134C39.6228 54.0177 39.1546 53.9393 39.0937 53.9393C39.0019 53.9393 39.0149 54.1207 39.1693 54.9969Z" fill="white"/>
<defs>
<filter id="filter0_i_3_778" x="0" y="0.952148" width="86" height="92" filterUnits="userSpaceOnUse" color-interpolation-filters="sRGB">
<feFlood flood-opacity="0" result="BackgroundImageFix"/>
<feBlend mode="normal" in="SourceGraphic" in2="BackgroundImageFix" result="shape"/>
<feColorMatrix in="SourceAlpha" type="matrix" values="0 0 0 0 0 0 0 0 0 0 0 0 0 0 0 0 0 0 127 0" result="hardAlpha"/>
<feOffset dy="6"/>
<feGaussianBlur stdDeviation="10"/>
<feComposite in2="hardAlpha" operator="arithmetic" k2="-1" k3="1"/>
<feColorMatrix type="matrix" values="0 0 0 0 1 0 0 0 0 1 0 0 0 0 1 0 0 0 0.16 0"/>
<feBlend mode="normal" in2="shape" result="effect1_innerShadow_3_778"/>
</filter>
</defs>
</svg>
