<svg width="40" height="41" viewBox="0 0 40 41" fill="none" xmlns="http://www.w3.org/2000/svg">
<path fill-rule="evenodd" clip-rule="evenodd" d="M25.7422 1.03816C20.4608 1.5891 15.9913 5.4323 14.6584 10.5689C14.1084 12.6886 14.1211 15.0929 14.6934 17.1977L14.8516 17.7792L7.55078 25.0883C3.53531 29.1083 0.19375 32.51 0.125 32.6475C0.0159375 32.8657 0 33.3509 0 36.4592C0 39.8746 0.00648438 40.0335 0.157266 40.3292C0.258516 40.5277 0.424453 40.6936 0.622969 40.7949C0.918672 40.9457 1.0775 40.9521 4.51281 40.9521H8.09438L8.44172 40.7291C8.63273 40.6064 9.16391 40.12 9.62203 39.6479C10.6652 38.5731 10.686 38.5173 10.5328 37.203C10.4563 36.546 10.4472 36.2387 10.5037 36.2185C10.5489 36.2023 11.1327 36.1375 11.8011 36.0745C13.1601 35.9464 13.3103 35.906 13.6065 35.5889C13.8741 35.3025 13.9476 34.9885 14.066 33.6257C14.1193 33.0121 14.1843 32.4978 14.2104 32.4827C14.2365 32.4676 14.6621 32.5055 15.1562 32.5669C16.1952 32.696 16.4644 32.6653 16.8052 32.3785C17.2055 32.0416 17.2656 31.7946 17.2656 30.4859V29.3115H18.4324C19.0741 29.3115 19.6982 29.2746 19.8191 29.2296C19.9401 29.1846 20.6367 28.5597 21.3672 27.8411C22.0977 27.1225 22.8212 26.42 22.9751 26.2799L23.2548 26.0252L24.0298 26.2196C26.1106 26.7417 28.0059 26.7765 30.0737 26.3306C31.121 26.1047 32.0011 25.7788 33.125 25.2004C39.2127 22.0678 41.711 14.4871 38.7091 8.25683C36.343 3.34636 31.1781 0.471053 25.7422 1.03816ZM31.5898 7.22855C34.2328 8.18793 34.7441 11.6768 32.4854 13.3396C31.8098 13.8369 31.1791 14.0214 30.2898 13.982C29.1463 13.9313 28.3572 13.5327 27.6552 12.6511C27.2039 12.0843 27.008 11.5153 26.9702 10.6624C26.9441 10.0729 26.969 9.8505 27.1084 9.43183C27.4376 8.44238 28.256 7.60058 29.2468 7.23238C29.927 6.97949 30.8994 6.97793 31.5898 7.22855Z" fill="#C7C7DB"/>
</svg>
