<svg width="61" height="90" viewBox="0 0 61 90" fill="none" xmlns="http://www.w3.org/2000/svg">
<g clip-path="url(#clip0_3_781)">
<path d="M27.6928 22.7839C23.0647 22.7839 18.4366 22.7839 13.8085 22.7839C12.5945 22.7839 12.2152 23.0866 12.2152 24.2977C12.2152 31.0345 12.2152 37.8469 12.2152 44.5837C12.2152 45.2649 12.4428 45.7948 12.898 46.3246C16.2363 49.5795 19.5746 52.8343 22.9129 56.0891C23.1405 56.3162 23.6716 56.5433 23.8993 56.4676C24.1269 56.3162 24.3545 55.8621 24.3545 55.4836C24.3545 49.201 24.3545 42.9184 24.3545 36.6358C24.3545 35.122 24.5821 34.8949 26.0995 34.8949C29.1343 34.8949 32.0933 34.8949 35.1281 34.8949C36.2662 34.8949 36.5697 35.1976 36.5697 36.3331C36.5697 42.4643 36.5697 48.6712 36.5697 54.8024C36.5697 55.0294 36.4938 55.3322 36.5697 55.5593C36.6455 55.8621 36.7973 56.3162 37.0249 56.3919C37.2525 56.4676 37.7077 56.3162 37.9353 56.0891C39.2251 54.878 40.5149 53.5912 41.8047 52.3801C43.8532 50.4121 45.9017 48.3684 47.9502 46.4003C48.4813 45.8705 48.709 45.2649 48.709 44.508C48.709 41.6316 48.709 38.8309 48.709 35.9546C48.709 35.1976 48.9366 34.5921 49.4677 34.0622C52.7301 30.8831 55.9925 27.704 59.3308 24.5248C59.4826 24.3734 59.5585 24.222 59.7861 24.1463C60.3172 23.8436 60.8483 24.0706 60.9241 24.6762C60.9241 24.9033 60.9241 25.1304 60.9241 25.3574C60.9241 33.381 60.9241 41.4802 60.9241 49.5038C60.9241 50.4121 60.6206 51.0177 60.0137 51.6989C56.2201 55.4079 52.4266 59.1169 48.6331 62.8259C44.9154 66.4592 41.1978 70.0925 37.4801 73.7258C36.8731 74.3314 36.5697 75.0126 36.5697 75.9209C36.5697 78.4188 36.5697 80.9167 36.5697 83.4146C36.5697 84.1716 36.342 84.7771 35.8109 85.307C34.2177 86.8209 32.7002 88.259 31.1828 89.7729C30.6517 90.2271 30.2724 90.2271 29.7413 89.7729C28.0721 88.1833 26.4789 86.5938 24.8856 84.9285C24.5062 84.55 24.3545 83.8688 24.3545 83.3389C24.2786 80.7653 24.2786 78.2674 24.3545 75.6939C24.3545 74.9369 24.1269 74.3314 23.5199 73.7258C16.0846 66.5349 8.64925 59.2683 1.21393 52.0774C0.379353 51.1691 0 50.3364 0 49.1253C0.0758706 36.8629 0 24.6762 0 12.4138C0 10.8242 0.227612 10.5971 1.8209 10.5971C8.87687 10.5971 16.0087 10.5971 23.0647 10.5971C24.2027 10.5971 24.3545 10.4458 24.3545 9.31034C24.3545 6.73675 24.3545 4.08747 24.3545 1.51388C24.3545 0.302775 24.658 0 25.9478 0C29.0585 0 32.0933 0 35.204 0C36.342 0 36.6455 0.302775 36.6455 1.36249C36.6455 3.93608 36.6455 6.43398 36.6455 9.00757C36.6455 10.4458 36.7214 10.5214 38.1629 10.5214C43.0945 10.5214 48.102 10.5214 53.0336 10.5214C53.4129 10.5214 54.0199 10.6728 54.2475 10.9756C54.6269 11.5055 54.0958 11.8839 53.7164 12.1867C50.3781 15.4415 46.9639 18.7721 43.5498 22.0269C43.0945 22.4054 42.4117 22.7082 41.8047 22.7082C37.1007 22.8595 32.3968 22.7839 27.6928 22.7839Z" fill="white"/>
</g>
<defs>
<clipPath id="clip0_3_781">
<rect width="61" height="90" fill="white"/>
</clipPath>
</defs>
</svg>
