<svg width="50" height="54" viewBox="0 0 50 54" fill="none" xmlns="http://www.w3.org/2000/svg">
<g filter="url(#filter0_i_3_604)">
<path d="M19 2.4641C22.7128 0.320509 27.2872 0.320508 31 2.4641L43.2487 9.5359C46.9615 11.6795 49.2487 15.641 49.2487 19.9282V34.0718C49.2487 38.359 46.9615 42.3205 43.2487 44.4641L31 51.5359C27.2872 53.6795 22.7128 53.6795 19 51.5359L6.75129 44.4641C3.03848 42.3205 0.751289 38.359 0.751289 34.0718V19.9282C0.751289 15.641 3.03848 11.6795 6.75129 9.5359L19 2.4641Z" fill="#EBEBF1"/>
</g>
<path d="M19.5158 3.35748C22.9094 1.39816 27.0906 1.39816 30.4842 3.35748L42.7329 10.4293C46.1266 12.3886 48.2171 16.0096 48.2171 19.9282V34.0718C48.2171 37.9904 46.1266 41.6114 42.7329 43.5707L30.4842 50.6425C27.0906 52.6018 22.9094 52.6018 19.5158 50.6425L7.26708 43.5707C3.87344 41.6114 1.78287 37.9904 1.78287 34.0718V19.9282C1.78287 16.0096 3.87344 12.3886 7.26708 10.4293L19.5158 3.35748Z" stroke="white" stroke-opacity="0.22" stroke-width="2.06316"/>
<defs>
<filter id="filter0_i_3_604" x="0.751282" y="0.856445" width="48.4974" height="54.3503" filterUnits="userSpaceOnUse" color-interpolation-filters="sRGB">
<feFlood flood-opacity="0" result="BackgroundImageFix"/>
<feBlend mode="normal" in="SourceGraphic" in2="BackgroundImageFix" result="shape"/>
<feColorMatrix in="SourceAlpha" type="matrix" values="0 0 0 0 0 0 0 0 0 0 0 0 0 0 0 0 0 0 127 0" result="hardAlpha"/>
<feOffset dy="2.06316"/>
<feGaussianBlur stdDeviation="12.5"/>
<feComposite in2="hardAlpha" operator="arithmetic" k2="-1" k3="1"/>
<feColorMatrix type="matrix" values="0 0 0 0 0.706563 0 0 0 0 0.706563 0 0 0 0 0.843437 0 0 0 1 0"/>
<feBlend mode="normal" in2="shape" result="effect1_innerShadow_3_604"/>
</filter>
</defs>
</svg>
