<svg width="40" height="41" viewBox="0 0 40 41" fill="none" xmlns="http://www.w3.org/2000/svg">
<path fill-rule="evenodd" clip-rule="evenodd" d="M5.10222 2.03022C4.74534 2.10836 4.40956 2.38199 4.2512 2.72377C4.11714 3.01292 4.11964 3.12754 4.32479 6.14473C4.44159 7.86169 4.5737 9.39245 4.61839 9.54642C4.6819 9.7651 6.8894 12.0702 14.7092 20.0832L24.7188 30.3399L24.3328 30.7412C24.1205 30.9619 23.9135 31.1424 23.8728 31.1424C23.8321 31.1424 23.5988 30.9471 23.3543 30.7084C22.6798 30.0496 22.028 30.0025 21.4715 30.5723C21.089 30.9639 21.0042 31.4455 21.2282 31.9532C21.4064 32.3569 23.041 34.0444 23.3828 34.1774C23.6894 34.2968 24.11 34.2821 24.3985 34.1418C24.5344 34.0759 25.3303 33.32 26.1675 32.4622L27.6894 30.9024L29.2142 32.462L30.7389 34.0216L33.0815 31.6223L35.424 29.223L33.9036 27.6649L32.3832 26.1068L33.9943 24.4453C35.5241 22.8676 35.6079 22.7653 35.6595 22.4131C35.7449 21.8297 35.5409 21.4798 34.5139 20.4488C34.0234 19.9562 33.5245 19.5154 33.4053 19.469C32.5733 19.1451 31.7143 19.7204 31.7143 20.6015C31.7143 21.09 31.7868 21.2371 32.287 21.7641L32.6856 22.1841L32.2601 22.6252L31.8346 23.0662L21.8331 12.8308C16.2182 7.08456 11.7358 2.55892 11.6132 2.51221C11.4932 2.46646 10.1748 2.33968 8.68354 2.23042C7.19229 2.12116 5.83151 2.01942 5.65964 2.00422C5.48776 1.98903 5.2369 2.0007 5.10222 2.03022ZM31.5792 2.19667C29.4132 2.35776 28.5222 2.45286 28.337 2.54284C28.1964 2.61107 26.6578 4.12487 24.9178 5.90678L21.7541 9.14657L25.3081 12.7858L28.8621 16.4251L32.0467 13.1657C34.5211 10.6333 35.2567 9.83501 35.3443 9.58641C35.417 9.38053 35.5325 8.15188 35.6683 6.1389L35.8795 3.0114L35.6914 2.6637C35.4921 2.29521 35.1858 2.07085 34.8003 2.01094C34.6714 1.99095 33.2218 2.07453 31.5792 2.19667ZM6.51901 19.4974C6.39011 19.5561 5.85667 20.0525 5.33362 20.6006C4.31347 21.6697 4.21558 21.8532 4.32901 22.484C4.37479 22.7386 4.62667 23.0348 5.99628 24.4445L7.60956 26.1051L6.08831 27.6641L4.56714 29.223L6.90964 31.6223L9.25222 34.0216L10.777 32.462L12.3017 30.9024L13.8244 32.4675C14.6619 33.3283 15.4421 34.0842 15.5581 34.1472C15.8341 34.2972 16.3527 34.2932 16.6706 34.1387C16.81 34.0711 17.3303 33.5942 17.8269 33.0789C18.5486 32.3302 18.7477 32.074 18.8189 31.8023C18.996 31.1257 18.6357 30.459 17.985 30.2594C17.4624 30.0992 17.1438 30.2111 16.5991 30.7466L16.1192 31.2184L15.6958 30.7795L15.2725 30.3406L16.7546 28.8216L18.2367 27.3026L14.6831 23.6638L11.1294 20.0249L9.64284 21.5454L8.1562 23.0659L7.73089 22.6249L7.30558 22.1841L7.7087 21.7641C7.93042 21.5332 8.14894 21.2429 8.19433 21.1191C8.58206 20.0608 7.52659 19.0391 6.51901 19.4974ZM1.46503 32.4022C0.0608094 33.8516 -0.0827843 34.0831 0.0306532 34.7141C0.0783095 34.9787 0.316825 35.2597 1.74003 36.7274C2.64972 37.6655 3.48893 38.4844 3.60495 38.547C3.85604 38.6827 4.46815 38.6968 4.70776 38.5725C4.80159 38.5237 5.46737 37.8852 6.18714 37.1534L7.49597 35.8229L5.17206 33.4427C3.89386 32.1335 2.82893 31.0624 2.80558 31.0624C2.78214 31.0624 2.17893 31.6653 1.46503 32.4022ZM34.8191 33.4427L32.4952 35.8229L33.804 37.1534C34.5238 37.8852 35.1896 38.5237 35.2834 38.5725C35.5235 38.6971 36.1355 38.6826 36.3862 38.5464C36.7075 38.3719 39.8203 35.1333 39.9137 34.8765C40.0304 34.5555 40.015 34.2137 39.8707 33.9179C39.7601 33.6914 37.286 31.0624 37.1835 31.0624C37.1612 31.0624 36.0973 32.1335 34.8191 33.4427Z" fill="#C7C7DB"/>
</svg>
